<?xml version="1.0" standalone="no"?>
<!DOCTYPE svg PUBLIC "-//W3C//DTD SVG 20010904//EN"
 "http://www.w3.org/TR/2001/REC-SVG-20010904/DTD/svg10.dtd">
<svg version="1.0" xmlns="http://www.w3.org/2000/svg"
 width="400.000000pt" height="400.000000pt" viewBox="0 0 400.000000 400.000000"
 preserveAspectRatio="xMidYMid meet">
<metadata>
Created by potrace 1.11, written by Peter Selinger 2001-2013
</metadata>
<g transform="translate(0.000000,400.000000) scale(0.100000,-0.100000)"
fill="#000000" stroke="none">
<path d="M0 2000 l0 -2000 2000 0 2000 0 0 2000 0 2000 -2000 0 -2000 0 0
-2000z m609 1667 c-2 -1 -13 -9 -24 -17 -19 -14 -19 -14 -6 3 7 9 18 17 24 17
6 0 8 -1 6 -3z m-125 -44 c34 0 51 -4 57 -16 7 -11 21 -15 49 -14 22 2 40 -1
40 -5 0 -4 -6 -8 -12 -8 -7 0 -5 -5 5 -11 9 -5 17 -19 17 -29 0 -16 6 -19 29
-16 23 2 28 0 23 -12 -3 -10 -1 -13 6 -8 7 4 10 -1 7 -14 -2 -11 1 -22 6 -26
5 -3 8 0 7 7 -2 7 6 14 17 16 12 3 16 1 9 -4 -6 -4 -14 -18 -18 -30 -7 -23
-24 -26 -39 -8 -9 10 -5 -14 8 -50 6 -16 5 -17 -4 -5 -10 13 -12 13 -21 0 -9
-13 -10 -13 -10 0 0 11 -4 9 -12 -5 -6 -11 -18 -24 -26 -29 -12 -7 -12 -10 -1
-17 10 -6 10 -9 2 -9 -9 0 -10 -7 -3 -26 12 -31 12 -34 1 -34 -5 0 -11 8 -14
19 -3 14 -11 17 -31 14 -14 -3 -26 -10 -26 -15 0 -5 -4 -7 -9 -3 -18 11 -21
-13 -6 -49 15 -34 14 -36 -4 -36 -11 0 -22 -4 -26 -9 -3 -6 3 -8 13 -6 11 2
19 -3 19 -10 0 -8 -5 -11 -10 -8 -7 4 -8 -1 -4 -13 5 -14 2 -12 -13 6 -11 14
-20 31 -20 38 0 6 -5 12 -11 12 -6 0 -8 7 -5 16 5 13 1 15 -17 10 -17 -4 -30
0 -42 14 -14 15 -15 20 -4 20 9 1 5 8 -10 21 -13 11 -30 18 -38 15 -7 -3 -13
0 -13 6 0 6 -7 20 -17 30 -9 11 -11 18 -5 18 7 0 12 5 12 11 0 5 -3 8 -8 5
-11 -7 -12 107 -1 121 6 7 8 17 4 23 -3 5 -2 10 4 10 5 0 12 -6 14 -12 3 -7 6
0 6 16 1 25 4 28 26 24 30 -6 35 0 37 47 1 20 4 32 7 27 3 -5 28 -9 55 -9z
m188 -35 c-6 -22 -6 -22 -10 -3 -2 11 -9 26 -16 34 -9 12 -8 12 11 3 16 -9 20
-18 15 -34z m382 -229 c-3 -6 3 -5 14 2 21 13 57 5 47 -11 -4 -6 1 -7 10 -3
10 3 21 0 26 -8 7 -11 9 -10 10 6 l0 20 9 -20 c5 -11 9 -14 9 -7 1 6 5 12 11
12 5 0 7 -6 4 -13 -3 -8 2 -20 11 -27 13 -11 18 -10 29 5 7 10 18 15 24 11 17
-11 14 -26 -5 -26 -14 0 -14 -2 3 -21 10 -11 20 -16 22 -10 2 6 8 11 14 11 6
0 5 -6 -2 -15 -7 -9 -20 -13 -29 -10 -11 3 -9 0 4 -11 20 -16 20 -16 -2 -11
-16 3 -20 1 -16 -10 3 -8 12 -12 19 -9 7 3 16 1 19 -4 4 -6 15 -10 26 -10 13
0 19 -7 19 -21 0 -18 -2 -19 -15 -9 -12 10 -15 10 -15 -3 0 -9 5 -19 11 -23 8
-4 7 -9 -2 -15 -10 -6 -11 -9 -1 -9 7 0 12 -15 12 -40 0 -30 -3 -38 -14 -34
-11 4 -13 0 -9 -15 3 -11 9 -19 13 -16 5 3 6 -4 3 -15 -7 -27 -23 -36 -23 -13
-1 17 -1 17 -11 0 -5 -9 -7 -22 -4 -27 3 -6 2 -10 -3 -10 -5 0 -12 -9 -15 -20
-3 -14 -14 -20 -31 -20 -30 0 -33 -8 -8 -26 16 -13 16 -15 -2 -29 -13 -10 -23
-12 -30 -5 -5 5 -16 10 -24 10 -12 0 -12 -3 -2 -15 18 -21 8 -28 -23 -16 -22
9 -25 8 -20 -6 5 -13 0 -15 -25 -11 -18 2 -32 1 -32 -4 0 -5 -8 -5 -17 0 -10
5 -23 7 -30 5 -6 -2 -15 1 -19 8 -4 7 -3 9 3 6 5 -3 10 0 10 8 0 11 -7 9 -28
-6 -40 -29 -66 -25 -74 11 -4 17 -10 30 -14 30 -4 0 -7 -13 -6 -30 0 -16 4
-30 9 -30 5 0 7 -3 4 -6 -11 -10 -58 28 -58 47 0 10 -5 21 -12 25 -7 5 -8 3
-3 -6 6 -10 4 -12 -8 -7 -11 4 -14 2 -11 -7 4 -9 -3 -13 -20 -13 -29 0 -32 6
-13 26 6 8 0 6 -15 -3 -31 -20 -43 -45 -28 -60 7 -7 10 -6 10 4 0 7 3 11 6 7
3 -3 3 -11 -1 -17 -5 -8 -12 -7 -23 4 -14 12 -20 12 -35 1 -12 -9 -14 -15 -7
-20 8 -5 8 -11 -1 -21 -6 -8 -8 -14 -5 -14 4 0 2 -9 -4 -20 -6 -11 -16 -19
-22 -17 -6 1 -13 -4 -15 -11 -3 -8 2 -10 14 -6 15 5 15 4 3 -5 -21 -15 -30
-14 -30 7 0 13 -2 14 -9 3 -5 -7 -6 -22 -4 -33 5 -16 8 -17 22 -5 17 16 51 19
51 5 0 -4 -7 -8 -15 -8 -8 0 -15 -5 -15 -11 0 -5 5 -7 12 -3 7 5 8 3 3 -5 -4
-7 -18 -11 -31 -8 -14 2 -27 0 -30 -5 -3 -4 -10 -5 -16 -2 -6 4 -6 -1 1 -14 6
-12 16 -24 23 -28 7 -4 8 -3 4 4 -4 7 -2 12 3 12 12 0 13 -6 5 -37 -4 -13 -11
-23 -16 -23 -5 0 -6 5 -2 12 4 7 3 8 -4 4 -7 -4 -12 -17 -12 -29 0 -18 2 -19
10 -7 5 8 10 11 10 6 0 -5 6 -3 13 3 8 6 17 8 20 4 14 -13 6 -23 -19 -23 -14
0 -23 -4 -19 -9 3 -6 14 -8 25 -6 17 3 18 1 8 -21 -7 -14 -20 -24 -32 -24 -16
0 -18 2 -7 9 11 7 10 14 -5 40 -10 17 -25 31 -34 31 -13 0 -13 1 0 10 12 8 11
10 -7 10 -18 0 -22 5 -19 23 2 12 -2 28 -8 36 -9 12 -8 13 4 6 9 -5 7 0 -5 14
-20 23 -20 22 10 95 6 15 5 17 -5 11 -9 -5 -11 -4 -6 3 10 16 26 15 26 -1 0
-7 7 -22 16 -33 8 -10 12 -13 8 -5 -5 11 -3 13 11 7 15 -5 16 -4 6 8 -8 10 -9
16 -1 21 5 3 10 11 10 16 0 6 -5 7 -12 3 -7 -4 -8 -3 -4 4 4 6 14 9 24 6 16
-5 16 -5 0 9 -10 8 -15 17 -11 20 9 9 34 9 31 0 -2 -5 2 -9 7 -10 20 -5 10 32
-13 51 -19 15 -23 25 -18 47 3 16 1 29 -4 29 -6 0 -10 -4 -10 -10 0 -5 -4 -10
-10 -10 -5 0 -7 7 -4 15 4 8 15 15 26 15 10 0 16 5 13 10 -3 6 -1 10 4 10 6 0
11 -5 11 -11 0 -5 5 -7 10 -4 8 5 7 12 -2 23 -8 9 -8 13 -2 9 14 -8 25 17 20
46 -1 12 -1 16 1 9 3 -7 9 -9 15 -5 7 4 9 0 5 -10 -4 -11 -1 -17 8 -17 9 0 16
-10 16 -22 1 -18 2 -19 6 -5 2 9 10 15 16 12 7 -3 2 2 -10 11 -13 9 -23 23
-23 30 0 8 -5 14 -11 14 -5 0 -7 5 -4 10 4 6 10 8 15 5 12 -7 27 44 24 83 -1
17 2 32 7 32 5 0 9 7 9 16 0 9 -5 12 -12 8 -7 -5 -8 -3 -3 5 4 8 11 9 17 3 10
-10 58 7 58 21 0 5 -4 5 -10 2 -5 -3 -10 -1 -10 4 0 10 14 15 33 12 4 0 7 4 7
9 0 6 9 10 20 10 13 0 22 9 26 25 3 14 12 25 20 25 8 0 14 7 14 15 0 8 5 15
10 15 6 0 11 8 11 18 1 16 2 16 6 -1 5 -20 27 -16 74 12 31 19 73 25 63 10z
m301 -9 c3 -5 1 -10 -4 -10 -6 0 -11 5 -11 10 0 6 2 10 4 10 3 0 8 -4 11 -10z
m-1075 -4 c0 -3 -4 -8 -10 -11 -5 -3 -10 -1 -10 4 0 6 5 11 10 11 6 0 10 -2
10 -4z m55 -15 c3 -5 1 -12 -5 -16 -5 -3 -10 1 -10 9 0 18 6 21 15 7z m1005
-16 c-7 -8 -17 -15 -22 -15 -6 0 -5 7 2 15 7 8 17 15 22 15 6 0 5 -7 -2 -15z
m-611 -14 c11 -7 9 -11 -9 -21 -15 -8 -20 -8 -16 -1 4 6 2 11 -3 11 -6 0 -11
5 -11 10 0 12 20 13 39 1z m-389 -17 c0 -8 -5 -12 -10 -9 -6 4 -8 11 -5 16 9
14 15 11 15 -7z m260 -44 c0 -5 -2 -10 -4 -10 -3 0 -8 5 -11 10 -3 6 -1 10 4
10 6 0 11 -4 11 -10z m817 -12 c-3 -8 -6 -5 -6 6 -1 11 2 17 5 13 3 -3 4 -12
1 -19z m-737 -38 c8 -5 11 -10 5 -10 -5 0 -17 5 -25 10 -8 5 -10 10 -5 10 6 0
17 -5 25 -10z m-3 -95 c8 -8 13 -19 11 -24 -2 -5 -11 2 -21 15 -20 27 -14 32
10 9z m-72 -45 c3 -5 2 -10 -4 -10 -5 0 -13 5 -16 10 -3 6 -2 10 4 10 5 0 13
-4 16 -10z m-5 -60 c0 -5 -5 -10 -11 -10 -5 0 -7 5 -4 10 3 6 8 10 11 10 2 0
4 -4 4 -10z m-47 -107 c-4 -11 -8 -13 -11 -5 -2 7 -9 9 -14 6 -7 -4 -8 -2 -4
4 12 19 36 15 29 -5z m36 -20 c-3 -20 2 -34 11 -28 18 11 11 -8 -12 -32 -12
-13 -26 -23 -32 -23 -5 0 -2 6 8 13 17 13 18 14 2 20 -10 4 -14 12 -10 18 4 8
9 7 15 -2 7 -11 9 -11 9 -1 0 7 -8 16 -17 19 -15 6 -15 7 3 14 10 4 20 8 22 8
1 1 1 -2 1 -6z m221 -73 c6 -11 8 -20 6 -20 -3 0 -10 9 -16 20 -6 11 -8 20 -6
20 3 0 10 -9 16 -20z m278 -15 c-3 -3 -9 2 -12 12 -6 14 -5 15 5 6 7 -7 10
-15 7 -18z m-319 -10 c3 -4 -6 -4 -20 -2 -14 3 -32 1 -40 -4 -11 -7 -10 -9 6
-9 19 -1 19 -1 -2 -19 -13 -11 -23 -24 -23 -30 0 -6 -4 -11 -8 -11 -5 0 -9 7
-9 15 0 8 4 15 9 15 5 0 7 4 3 10 -10 16 32 49 56 45 12 -2 24 -7 28 -10z
m-199 -5 c0 -5 -7 -7 -15 -4 -8 4 -15 8 -15 10 0 2 7 4 15 4 8 0 15 -4 15 -10z
m315 -9 c3 -5 1 -12 -5 -16 -5 -3 -10 1 -10 9 0 18 6 21 15 7z m60 0 c3 -5 1
-12 -5 -16 -5 -3 -10 1 -10 9 0 18 6 21 15 7z m-74 -62 c8 -17 8 -20 -2 -17
-7 2 -13 12 -15 21 -3 23 3 21 17 -4z m-381 -19 c0 -5 -2 -10 -4 -10 -3 0 -8
5 -11 10 -3 6 -1 10 4 10 6 0 11 -4 11 -10z m-42 -81 c-3 -8 -7 -3 -11 10 -4
17 -3 21 5 13 5 -5 8 -16 6 -23z m227 11 c3 -6 -1 -13 -10 -16 -14 -6 -14 -8
2 -19 10 -7 22 -11 28 -7 5 3 4 -2 -3 -10 -8 -9 -20 -14 -29 -11 -10 4 -11 8
-3 13 8 5 6 9 -7 14 -17 7 -17 8 0 21 13 10 15 14 5 18 -9 4 -9 6 -1 6 6 1 15
-4 18 -9z m88 -10 c3 -11 1 -18 -4 -14 -5 3 -9 12 -9 20 0 20 7 17 13 -6z
m-356 -22 c-3 -8 -6 -5 -6 6 -1 11 2 17 5 13 3 -3 4 -12 1 -19z m117 -3 c-4
-8 -8 -15 -10 -15 -2 0 -4 7 -4 15 0 8 4 15 10 15 5 0 7 -7 4 -15z m-71 -2
c-7 -2 -19 -2 -25 0 -7 3 -2 5 12 5 14 0 19 -2 13 -5z m-3 -34 c0 -11 -4 -18
-10 -14 -5 3 -7 12 -3 20 7 21 13 19 13 -6z m29 -1 c-5 -10 -11 -18 -12 -18
-2 0 -3 8 -3 18 0 10 6 19 13 19 8 0 9 -6 2 -19z m328 -4 c-3 -3 -12 -4 -19
-1 -8 3 -5 6 6 6 11 1 17 -2 13 -5z m-352 -43 c-3 -2 -11 2 -20 9 -12 10 -16
8 -24 -11 -6 -14 -10 -18 -10 -8 -1 26 19 39 40 26 10 -6 16 -13 14 -16z m125
-29 c0 -7 -4 -10 -10 -7 -5 3 -10 16 -10 28 0 18 2 19 10 7 5 -8 10 -21 10
-28z m71 -5 c-10 -9 -11 -8 -5 6 3 10 9 15 12 12 3 -3 0 -11 -7 -18z m-140
-40 c1 17 2 17 6 0 2 -9 8 -15 13 -12 15 9 23 -16 10 -28 -9 -9 -11 -9 -7 -1
4 7 0 15 -8 18 -18 7 -30 -16 -21 -40 5 -14 4 -15 -8 -5 -12 10 -13 8 -9 -10
3 -12 14 -24 25 -26 19 -6 25 -23 7 -23 -13 0 -33 20 -42 43 -7 20 -33 23 -40
5 -2 -7 -7 3 -12 22 -5 23 -4 35 4 38 6 2 11 10 11 17 0 12 6 12 35 -1 32 -13
35 -13 36 3z m168 -16 c-15 -5 -22 6 -14 19 6 9 10 9 16 -1 5 -8 4 -15 -2 -18z
m-29 15 c0 -2 -8 -10 -17 -17 -16 -13 -17 -12 -4 4 13 16 21 21 21 13z m120
-30 c0 -2 -12 -12 -27 -21 l-28 -18 19 21 c17 20 36 29 36 18z m710 -6 c0 -5
-5 -10 -11 -10 -5 0 -7 5 -4 10 3 6 8 10 11 10 2 0 4 -4 4 -10z m-1010 -50 c0
-5 -2 -10 -4 -10 -3 0 -8 5 -11 10 -3 6 -1 10 4 10 6 0 11 -4 11 -10z m60 0
c0 -5 -5 -10 -11 -10 -5 0 -7 5 -4 10 3 6 8 10 11 10 2 0 4 -4 4 -10z m434
-165 c3 -8 1 -15 -4 -15 -6 0 -10 7 -10 15 0 8 2 15 4 15 2 0 6 -7 10 -15z
m-74 -39 c0 -3 -4 -8 -10 -11 -5 -3 -10 -1 -10 4 0 6 5 11 10 11 6 0 10 -2 10
-4z m-173 -191 c0 -8 -4 -12 -9 -9 -5 3 -6 10 -3 15 9 13 12 11 12 -6z m20 -7
c-3 -8 -6 -5 -6 6 -1 11 2 17 5 13 3 -3 4 -12 1 -19z m2460 -73 c0 -8 -4 -12
-9 -9 -5 3 -6 10 -3 15 9 13 12 11 12 -6z m-1970 -32 c-4 -3 -2 -11 3 -18 7
-8 5 -12 -4 -12 -8 0 -12 7 -11 16 5 22 4 21 12 21 3 0 3 -3 0 -7z m1960 1
c-3 -3 -12 -4 -19 -1 -8 3 -5 6 6 6 11 1 17 -2 13 -5z m23 -9 c0 -8 -4 -15
-10 -15 -5 0 -7 7 -4 15 4 8 8 15 10 15 2 0 4 -7 4 -15z m45 -14 c3 -5 2 -12
-3 -15 -5 -3 -9 1 -9 9 0 17 3 19 12 6z m48 -22 c4 8 5 7 3 -1 -2 -7 -10 -12
-20 -10 -9 2 -16 -2 -16 -8 0 -5 5 -10 10 -10 6 0 10 -7 10 -16 0 -8 4 -13 8
-10 8 5 49 -35 44 -42 -2 -1 7 -15 18 -30 20 -25 20 -27 4 -39 -10 -7 -14 -16
-11 -20 4 -3 -1 -15 -10 -26 -17 -19 -17 -20 0 -14 13 5 17 1 16 -16 0 -12 -3
-16 -6 -9 -2 6 -11 12 -19 12 -12 0 -12 -4 -4 -20 14 -26 4 -43 -21 -35 -12 4
-21 1 -25 -9 -8 -21 -24 -21 -24 0 0 8 4 13 9 9 5 -3 12 -1 15 4 9 13 -9 22
-28 15 -11 -4 -15 -14 -11 -28 2 -11 2 -15 -1 -8 -3 7 -19 20 -36 28 -25 13
-32 13 -39 3 -5 -9 -10 -5 -15 15 -4 17 -11 25 -20 22 -8 -3 -14 -2 -14 3 0
15 -37 51 -54 51 -9 0 -16 5 -16 11 0 6 12 9 28 7 21 -2 26 1 24 14 -2 13 2
16 15 11 15 -5 15 -3 -2 10 -19 14 -19 16 -2 22 24 10 21 33 -5 38 -15 3 -9 5
14 6 20 0 44 8 52 17 11 11 16 12 16 3 0 -7 7 -5 16 7 8 10 12 12 8 4 -7 -13
-5 -13 9 -1 9 7 14 17 11 22 -3 5 4 9 15 9 15 0 21 7 21 23 l1 22 13 -24 c8
-15 15 -20 19 -12z m-1810 -14 c-3 -9 -8 -14 -10 -11 -3 3 -2 9 2 15 9 16 15
13 8 -4z m-843 -34 c0 -6 -4 -12 -8 -15 -5 -3 -9 1 -9 9 0 8 4 15 9 15 4 0 8
-4 8 -9z m130 -41 c6 -11 8 -20 6 -20 -3 0 -10 9 -16 20 -6 11 -8 20 -6 20 3
0 10 -9 16 -20z m405 1 c3 -5 2 -12 -3 -15 -5 -3 -9 1 -9 9 0 17 3 19 12 6z
m-92 -186 c-3 -9 -8 -14 -10 -11 -3 3 -2 9 2 15 9 16 15 13 8 -4z m-16 -31
c-3 -3 -12 -4 -19 -1 -8 3 -5 6 6 6 11 1 17 -2 13 -5z m688 -144 c4 -7 13 -7
26 0 10 6 19 8 19 5 0 -3 0 -7 0 -10 0 -3 -3 -4 -6 -2 -4 1 -10 -8 -15 -20
-10 -28 -29 -30 -24 -3 2 11 -3 24 -13 30 -9 5 -12 10 -5 10 6 0 15 -5 18 -10z
m-29 -43 c8 3 14 1 14 -4 0 -5 -9 -9 -20 -10 -13 -1 -20 4 -19 15 0 10 3 12 5
5 3 -7 12 -9 20 -6z m121 -11 c3 -3 1 -11 -3 -18 -13 -20 -13 -38 -1 -35 7 1
11 -3 10 -10 -2 -7 4 -10 12 -7 8 4 15 2 15 -3 0 -5 7 -18 16 -29 8 -10 13
-13 9 -6 -3 6 -1 12 5 12 7 0 8 6 2 18 -11 23 -9 48 5 45 6 -1 14 4 17 12 3 8
0 15 -6 15 -6 0 -8 3 -5 6 9 10 37 -16 37 -33 0 -9 -6 -13 -14 -10 -8 3 -20
-1 -27 -9 -10 -12 -9 -13 5 -8 9 3 23 1 31 -6 13 -11 19 -7 17 12 -1 3 4 8 11
11 7 3 13 -3 13 -14 0 -18 -13 -24 -43 -20 -6 1 -14 -2 -17 -7 -3 -5 8 -8 24
-7 23 1 27 -1 19 -11 -6 -7 -8 -17 -5 -22 3 -5 -1 -9 -8 -9 -9 0 -12 7 -8 16
8 24 -3 10 -21 -25 -16 -31 -16 -32 3 -27 16 4 19 2 14 -11 -5 -12 -10 -13
-26 -5 -11 6 -17 17 -14 25 3 8 -1 14 -10 14 -8 0 -13 -4 -10 -9 3 -5 -1 -14
-9 -21 -20 -17 -19 -25 8 -51 24 -24 4 -16 -26 10 -16 13 -18 13 -15 1 2 -8
-2 -14 -9 -13 -6 2 -14 -5 -17 -15 -3 -9 -14 -22 -25 -29 -16 -10 -18 -9 -14
6 2 9 -3 23 -12 31 -13 11 -15 10 -9 -4 7 -17 -20 -24 -31 -6 -3 5 -13 6 -23
3 -14 -5 -14 -3 2 9 24 19 14 38 -17 32 -16 -3 -15 -1 6 7 15 6 27 15 27 20 0
6 -4 8 -9 4 -5 -3 -12 -1 -16 4 -3 6 3 8 13 6 10 -2 25 1 33 6 11 7 10 9 -6 9
-17 0 -17 2 -5 10 23 15 -2 12 -33 -5 -15 -8 -25 -10 -22 -5 4 6 1 10 -4 10
-17 0 -9 52 12 80 18 23 18 25 0 31 -16 7 -15 8 5 8 12 1 22 -5 23 -11 0 -10
2 -10 6 0 2 6 9 10 14 6 5 -3 9 -1 9 4 0 16 32 23 47 11 11 -9 17 -9 26 1 9 9
9 11 0 6 -6 -3 -14 -2 -18 3 -5 10 33 7 42 -3z m43 -21 c-7 -8 -9 -15 -4 -15
4 0 3 -5 -3 -11 -6 -6 -17 -8 -23 -4 -9 6 -6 13 11 26 29 23 35 24 19 4z m204
-46 c-3 -6 0 -15 7 -20 11 -6 11 -10 1 -19 -6 -5 -10 -7 -7 -4 3 4 0 13 -6 20
-10 12 -5 34 7 34 3 0 2 -5 -2 -11z m-471 -84 c-3 -9 -8 -14 -10 -11 -3 3 -2
9 2 15 9 16 15 13 8 -4z m467 5 c0 -5 -2 -10 -4 -10 -3 0 -8 5 -11 10 -3 6 -1
10 4 10 6 0 11 -4 11 -10z m-433 -22 c2 -17 0 -19 -7 -8 -5 8 -6 18 -4 22 8
12 10 10 11 -14z m268 -32 c18 -13 17 -13 -8 -13 -14 0 -28 6 -31 13 -3 8 0
14 7 14 7 0 22 -6 32 -14z m-232 -51 c4 -8 1 -17 -5 -21 -6 -4 -8 -3 -4 4 3 6
-2 15 -11 21 -16 9 -16 10 -2 11 9 0 19 -7 22 -15z m167 -16 c0 -6 -4 -7 -10
-4 -5 3 -10 11 -10 16 0 6 5 7 10 4 6 -3 10 -11 10 -16z m50 7 c0 -2 -8 -10
-17 -17 -16 -13 -17 -12 -4 4 13 16 21 21 21 13z m-140 -20 c0 -3 -4 -8 -10
-11 -5 -3 -10 -1 -10 4 0 6 5 11 10 11 6 0 10 -2 10 -4z m27 -22 c-3 -3 -12
-4 -19 -1 -8 3 -5 6 6 6 11 1 17 -2 13 -5z m-57 -7 c0 -2 -11 -14 -25 -27 -14
-13 -25 -21 -25 -17 0 3 10 15 22 27 21 19 28 24 28 17z m530 -17 c0 -5 -2
-10 -4 -10 -3 0 -8 5 -11 10 -3 6 -1 10 4 10 6 0 11 -4 11 -10z m-54 -50 c0
-12 -4 -16 -9 -11 -5 5 -6 14 -3 20 10 15 12 14 12 -9z m-35 -37 c13 -16 12
-17 -3 -4 -17 13 -22 21 -14 21 2 0 10 -8 17 -17z m524 -3 c-3 -5 -12 -10 -18
-10 -7 0 -6 4 3 10 19 12 23 12 15 0z m-80 -10 c-3 -5 -12 -10 -18 -10 -7 0
-6 4 3 10 19 12 23 12 15 0z m230 -20 c3 -5 1 -10 -4 -10 -6 0 -11 5 -11 10 0
6 2 10 4 10 3 0 8 -4 11 -10z m-228 -8 c8 -5 9 -13 3 -22 -8 -13 -10 -12 -10
3 0 10 -4 15 -10 12 -5 -3 -10 -1 -10 4 0 13 10 14 27 3z m90 -22 c1 -11 -2
-18 -7 -15 -6 3 -7 -1 -4 -9 3 -9 11 -13 18 -9 6 3 5 0 -3 -8 -10 -11 -15 -11
-18 -1 -7 19 -20 14 -26 -9 -5 -17 -2 -20 14 -16 10 3 17 1 14 -3 -3 -5 -1
-10 4 -12 5 -1 -7 -11 -26 -21 -19 -9 -32 -13 -28 -8 3 5 -2 14 -11 19 -11 6
-15 16 -10 27 3 10 2 23 -4 30 -8 10 -6 15 10 20 11 3 18 11 15 16 -4 5 -1 9
4 9 6 0 11 -5 11 -11 0 -5 5 -7 10 -4 6 4 8 11 5 16 -4 5 2 9 12 9 12 0 19 -8
20 -20z m39 -7 c-7 -7 -26 7 -26 19 0 6 6 6 15 -2 9 -7 13 -15 11 -17z m-381
7 c-3 -5 -12 -10 -18 -10 -7 0 -6 4 3 10 19 12 23 12 15 0z m-48 -22 c-3 -8
-6 -5 -6 6 -1 11 2 17 5 13 3 -3 4 -12 1 -19z m523 7 c0 -8 -2 -15 -4 -15 -2
0 -6 7 -10 15 -3 8 -1 15 4 15 6 0 10 -7 10 -15z m-25 -46 c-3 -12 -7 -24 -10
-27 -3 -3 -3 5 -1 19 6 30 5 29 10 29 3 0 3 -10 1 -21z m117 -63 c6 4 8 2 4
-4 -3 -6 3 -17 14 -25 12 -9 18 -20 14 -30 -8 -21 -43 -17 -50 5 -5 17 -7 17
-25 -4 -17 -20 -19 -20 -11 -3 5 11 7 26 4 34 -3 9 1 11 17 6 12 -4 21 -2 21
4 0 6 -4 10 -9 9 -9 -3 -11 2 -11 25 0 6 5 4 11 -6 6 -9 15 -14 21 -11z m-66
-34 c-1 -22 -6 -28 -30 -30 -18 -2 -26 0 -21 7 3 6 1 11 -5 11 -6 0 -8 5 -5
10 9 15 21 12 41 -7 17 -17 18 -17 11 0 -4 10 -7 23 -7 28 0 5 -9 9 -20 9 -11
0 -20 4 -20 9 0 6 11 6 29 0 22 -8 28 -16 27 -37z m154 3 c4 3 3 -11 -3 -30
-11 -36 -24 -47 -24 -20 0 8 5 15 11 15 5 0 1 7 -10 15 -16 13 -17 16 -4 24
10 7 16 7 18 1 2 -6 7 -8 12 -5z m-83 -58 c6 2 27 -3 46 -11 38 -16 47 -13 47
16 0 10 4 18 9 18 4 0 7 -11 6 -24 -3 -20 1 -23 18 -18 12 3 16 7 9 10 -6 2
-12 10 -12 19 0 12 2 12 13 1 15 -15 19 -50 5 -42 -13 8 -49 -26 -41 -39 3 -5
1 -7 -5 -3 -5 3 -12 3 -15 -1 -2 -5 -2 -3 -1 4 2 7 -1 15 -7 18 -5 4 -6 11 -3
17 5 7 1 9 -9 5 -10 -3 -17 -3 -17 2 0 13 -48 19 -59 8 -8 -8 -11 -7 -11 2 0
7 -4 10 -9 6 -5 -3 -12 -1 -16 5 -3 5 -1 10 4 10 6 0 11 8 11 18 1 14 3 14 13
-4 7 -12 17 -19 24 -17z m47 18 c3 -8 1 -15 -4 -15 -6 0 -10 7 -10 15 0 8 2
15 4 15 2 0 6 -7 10 -15z m-1039 -45 c8 0 16 1 18 3 2 1 16 -6 31 -17 18 -11
25 -13 21 -5 -5 8 1 6 13 -5 17 -15 27 -17 49 -8 16 5 38 10 51 10 20 1 22 -1
10 -15 -11 -14 -10 -16 8 -11 20 5 21 3 11 -26 -5 -17 -14 -40 -20 -51 -8 -16
-7 -18 4 -7 20 19 29 15 29 -13 0 -18 -5 -25 -20 -25 -11 0 -20 -5 -20 -11 0
-8 -5 -8 -15 1 -9 7 -15 8 -15 2 0 -5 -9 -8 -20 -5 -14 4 -23 -2 -31 -20 -6
-14 -17 -23 -24 -20 -9 3 -12 -2 -11 -14 2 -10 -2 -21 -8 -25 -6 -4 -4 -9 7
-14 16 -6 16 -8 -5 -18 -13 -6 -23 -20 -23 -31 0 -20 -22 -41 -32 -31 -3 3 0
12 7 21 10 12 10 15 -4 15 -9 0 -16 7 -16 17 0 33 -14 1 -16 -37 -1 -29 2 -40
12 -40 8 0 14 -10 14 -25 0 -14 -4 -25 -9 -25 -5 0 -15 -2 -23 -5 -8 -3 -18 6
-25 25 -6 16 -7 30 -2 30 5 0 4 11 -1 26 -6 14 -8 31 -4 37 3 7 -1 4 -9 -6
-14 -17 -15 -16 -21 8 -4 14 -13 25 -21 25 -8 0 -15 2 -15 4 0 2 -3 12 -6 21
-4 9 -3 15 2 14 27 -5 46 2 41 15 -3 7 0 19 6 25 9 9 8 11 -3 6 -13 -4 -16 6
-17 56 -1 34 -4 64 -7 67 -9 9 37 82 51 82 8 0 11 -4 8 -10 -3 -6 1 -7 10 -4
12 5 13 10 4 20 -6 7 -7 19 -3 25 5 9 10 6 15 -9 5 -12 15 -22 24 -22z m1415
0 c-8 -5 -24 -10 -35 -10 -12 0 -27 -6 -35 -12 -12 -11 -12 -10 -1 4 11 15 33
23 71 26 13 2 13 1 0 -8z m-1537 -45 c-3 -9 -8 -14 -10 -11 -3 3 -2 9 2 15 9
16 15 13 8 -4z m1487 5 c0 -5 -5 -10 -11 -10 -5 0 -7 5 -4 10 3 6 8 10 11 10
2 0 4 -4 4 -10z m-1724 -56 c-4 -9 -9 -15 -11 -12 -3 3 -3 13 1 22 4 9 9 15
11 12 3 -3 3 -13 -1 -22z m247 -19 c4 -8 3 -16 -1 -19 -4 -3 -9 4 -9 15 -2 23
3 25 10 4z m366 -77 c1 -5 -6 -8 -15 -8 -11 0 -14 5 -10 16 3 9 6 21 7 27 0
12 17 -20 18 -35z m-605 16 c23 -9 20 -26 -4 -19 -16 5 -20 2 -20 -16 0 -18 3
-19 15 -9 8 6 18 9 22 7 5 -3 10 4 10 15 2 26 7 30 27 22 19 -7 17 -40 -2 -36
-21 4 -13 -35 10 -50 13 -9 18 -19 14 -27 -6 -8 -11 -9 -20 -2 -15 13 -28 3
-19 -13 4 -6 9 -19 10 -29 2 -10 10 -25 19 -34 8 -8 12 -18 9 -22 -4 -3 -12 2
-19 12 -17 23 -49 22 -71 -3 -23 -25 -41 -25 -55 -1 -13 25 -13 42 1 19 14
-25 28 -22 35 7 3 14 14 30 23 36 13 9 12 10 -7 6 -12 -3 -20 -1 -16 4 3 5 15
9 27 10 12 0 16 3 10 6 -7 2 -13 16 -13 29 0 13 -4 24 -10 24 -11 0 -14 53 -3
63 8 8 8 8 27 1z m796 -136 c0 -5 -6 -8 -14 -8 -9 0 -12 7 -9 21 4 16 8 17 14
7 5 -7 9 -16 9 -20z m-580 -29 c0 -14 -10 -34 -21 -45 -22 -19 -22 -19 -17 7
4 23 2 25 -20 21 -20 -4 -23 -1 -20 19 2 20 8 23 31 21 21 -3 27 1 27 15 0 15
2 16 10 3 5 -8 10 -27 10 -41z m-129 0 c-9 -23 -9 -22 -8 8 1 18 6 28 10 24 4
-4 3 -18 -2 -32z m-137 12 c3 -4 -8 -7 -23 -6 -17 0 -27 4 -24 11 4 12 40 8
47 -5z m729 -1 c-3 -12 -8 -19 -10 -16 -9 8 -43 -28 -43 -46 0 -21 35 -25 43
-5 3 6 6 -2 6 -19 1 -20 -5 -34 -14 -38 -9 -3 -15 0 -15 10 0 11 -6 14 -16 10
-9 -3 -22 -6 -30 -6 -8 0 -11 -6 -8 -15 7 -18 0 -19 -27 -4 -11 5 -17 15 -13
21 4 5 0 14 -7 19 -12 7 -12 9 0 9 11 0 11 3 2 14 -10 12 -7 14 21 13 30 -2
33 1 31 24 -1 23 2 26 27 23 16 -2 33 3 40 11 17 20 19 19 13 -5z m37 0 c0 -5
-2 -10 -4 -10 -3 0 -8 5 -11 10 -3 6 -1 10 4 10 6 0 11 -4 11 -10z m59 -2 c18
-11 18 -48 0 -48 -5 0 -6 7 -3 15 4 9 0 15 -10 15 -9 0 -16 7 -16 15 0 18 5
19 29 3z m-919 -2 c0 -3 -4 -8 -10 -11 -5 -3 -10 -1 -10 4 0 6 5 11 10 11 6 0
10 -2 10 -4z m268 -21 c1 -14 -2 -25 -7 -25 -12 0 -23 29 -15 41 10 16 20 9
22 -16z m101 -86 c-7 -4 -18 -5 -23 -2 -6 4 -5 8 2 11 7 2 12 11 12 20 1 15 2
14 11 -2 9 -14 8 -20 -2 -27z m-34 24 c-11 -3 -26 -10 -33 -15 -9 -8 -11 -7
-6 6 4 10 16 16 33 15 20 -1 22 -2 6 -6z m605 -13 c0 -5 -2 -10 -4 -10 -3 0
-8 5 -11 10 -3 6 -1 10 4 10 6 0 11 -4 11 -10z m-340 -10 c8 -5 12 -11 10 -14
-3 -2 -14 2 -24 10 -22 15 -10 19 14 4z m-29 -23 c-1 -12 -15 -9 -19 4 -3 6 1
10 8 8 6 -3 11 -8 11 -12z m74 -17 c3 -5 1 -10 -4 -10 -6 0 -11 5 -11 10 0 6
2 10 4 10 3 0 8 -4 11 -10z m-505 -33 c0 -5 -4 -5 -10 -2 -5 3 -10 14 -10 23
0 15 2 15 10 2 5 -8 10 -19 10 -23z m342 -19 c-8 -8 -9 -4 -5 13 4 13 8 18 11
10 2 -7 -1 -18 -6 -23z m38 6 c0 -8 -4 -12 -10 -9 -5 3 -10 10 -10 16 0 5 5 9
10 9 6 0 10 -7 10 -16z"/>
<path d="M670 3485 c0 -8 5 -15 10 -15 6 0 10 7 10 15 0 8 -4 15 -10 15 -5 0
-10 -7 -10 -15z"/>
<path d="M447 3276 c-7 -18 1 -26 25 -26 23 0 23 12 -1 27 -15 10 -20 9 -24
-1z"/>
<path d="M772 3160 c0 -14 2 -19 5 -12 2 6 2 18 0 25 -3 6 -5 1 -5 -13z"/>
<path d="M737 3146 c-3 -8 -2 -18 4 -22 16 -9 22 2 11 21 -8 15 -10 16 -15 1z"/>
<path d="M720 3110 c0 -5 5 -10 11 -10 5 0 7 5 4 10 -3 6 -8 10 -11 10 -2 0
-4 -4 -4 -10z"/>
<path d="M706 3023 c-6 -14 -5 -15 5 -6 7 7 10 15 7 18 -3 3 -9 -2 -12 -12z"/>
<path d="M755 3001 c-3 -5 -2 -12 3 -15 5 -3 9 1 9 9 0 17 -3 19 -12 6z"/>
<path d="M660 2962 c0 -5 7 -9 15 -9 8 0 12 4 9 9 -3 4 -9 8 -15 8 -5 0 -9 -4
-9 -8z"/>
<path d="M681 2824 c0 -11 3 -14 6 -6 3 7 2 16 -1 19 -3 4 -6 -2 -5 -13z"/>
<path d="M850 2836 c0 -2 7 -7 16 -10 8 -3 12 -2 9 4 -6 10 -25 14 -25 6z"/>
<path d="M623 2749 c-18 -12 -33 -22 -33 -24 0 -1 11 -2 25 -2 15 0 24 4 22
11 -2 6 3 16 12 23 26 20 9 15 -26 -8z"/>
<path d="M475 2380 c4 -6 11 -8 16 -5 14 9 11 15 -7 15 -8 0 -12 -5 -9 -10z"/>
<path d="M3310 1495 c0 -8 4 -15 10 -15 5 0 7 7 4 15 -4 8 -8 15 -10 15 -2 0
-4 -7 -4 -15z"/>
<path d="M1774 1247 c-4 -6 -3 -9 1 -4 5 4 17 0 27 -10 10 -9 18 -12 18 -7 0
5 -9 15 -20 21 -15 10 -21 10 -26 0z"/>
<path d="M1733 1191 c0 -11 5 -18 9 -15 4 3 5 11 1 19 -7 21 -12 19 -10 -4z"/>
<path d="M1870 1156 c0 -2 7 -7 16 -10 8 -3 12 -2 9 4 -6 10 -25 14 -25 6z"/>
<path d="M2661 725 c0 -5 4 -17 9 -25 7 -12 12 -12 22 -2 9 9 9 12 -4 12 -9 0
-19 6 -21 13 -3 6 -6 8 -6 2z"/>
<path d="M3035 540 c-3 -5 1 -10 9 -10 9 0 16 5 16 10 0 6 -4 10 -9 10 -6 0
-13 -4 -16 -10z"/>
<path d="M1880 510 c0 -5 5 -10 11 -10 5 0 7 5 4 10 -3 6 -8 10 -11 10 -2 0
-4 -4 -4 -10z"/>
<path d="M2110 510 c0 -5 4 -10 9 -10 6 0 13 5 16 10 3 6 -1 10 -9 10 -9 0
-16 -4 -16 -10z"/>
<path d="M1925 290 c-3 -5 -1 -10 4 -10 6 0 11 5 11 10 0 6 -2 10 -4 10 -3 0
-8 -4 -11 -10z"/>
<path d="M2180 150 c0 -5 5 -10 10 -10 6 0 10 5 10 10 0 6 -4 10 -10 10 -5 0
-10 -4 -10 -10z"/>
<path d="M2217 140 c3 -11 9 -20 13 -20 5 0 6 9 3 20 -3 11 -9 20 -13 20 -5 0
-6 -9 -3 -20z"/>
</g>
</svg>
