<svg xmlns="http://www.w3.org/2000/svg" viewBox="0 0 430.12 430.12">
    <path d="M381.38 198.64c24.16-2 40.55-12.98 46.85-27.88-8.71 5.36-35.76 11.2-50.7 5.63-.73-3.5-1.55-6.84-2.35-9.85-11.39-41.8-50.36-75.47-91.2-71.4 3.3-1.34 6.66-2.58 10-3.7 4.5-1.6 30.87-5.9 26.71-15.2-3.5-8.2-35.72 6.18-41.79 8.06 8.01-3.01 21.26-8.2 22.68-17.4-12.27 1.69-24.32 7.49-33.62 15.93 3.36-3.62 5.9-8.03 6.45-12.77-32.73 20.9-51.85 63.05-67.32 103.94-12.15-11.77-22.91-21.04-32.57-26.2-27.1-14.52-59.5-29.68-110.36-48.56-1.56 16.82 8.33 39.2 36.8 54.08-6.17-.83-17.45 1.01-26.47 3.17 3.67 19.28 15.67 35.16 48.17 42.84-14.85.98-22.53 4.36-29.48 11.64 6.76 13.41 23.26 29.2 52.95 25.95-33 14.23-13.46 40.57 13.4 36.64C113.7 320.9 41.48 317.41 0 277.83c108.3 147.57 343.72 87.27 378.8-54.87 26.28.23 41.74-9.1 51.32-19.39-15.15 2.57-37.1-.08-48.74-4.93z"/>
  </svg>
